#!OML:ASF F:\VICON\USERDATA\INSTALL\rory3\rory3.ASF
:FULLY-SPECIFIED
:DEGREES
43
root 0.5677209056139567 17.80940408008439 10.892687533781032 -3.4897688931133994 -3.6413115602316557 -6.852949295829665
lfemur -17.539868060429093 2.476629329662629 -9.53406416374463
ltibia 63.495134791539385
lfoot -10.784474113865818 -4.120140713062518
ltoes -0.48308188435060817
rfemur -11.443607831475994 5.158744082085165 32.41826289299415
rtibia 19.39920104225205
rfoot -0.23740874976458226 -8.369314020500036
rtoes 11.085755936517758
lowerback 11.908648025165071 1.2877641894371217 4.479832532145944
upperback 0.21548232358494024 2.748339878954141 2.672247492540265
thorax -6.257714059956509 1.266818059822869 -0.31760140962830774
lowerneck -16.5679426479413 -3.4848797307638066 -1.4851171358652326
upperneck 21.19616388412485 -4.869271926943283 2.067570549442803
head 9.48664811455143 -2.2070286956229905 0.3746549899511274
lclavicle -2.7003079518068045e-15 -2.151714706244581e-15
lhumerus -34.50472265972198 7.490500205202034 82.92181535809772
lradius 23.16616415783557
lwrist 10.423780879116668
lhand -29.445606045085075 16.696761466338735
lfingers 7.125020000000001
lthumb -2.7968639747630686 46.98163087185635
rclavicle -2.7003079517602925e-15 -2.1517147062123703e-15
rhumerus -27.782018351157575 -16.895354894125294 -76.24177919310426
rradius 26.341100833102498
rwrist 6.973858265538295
rhand -17.869321911834575 21.687700984132825
rfingers 7.125020000000001
rthumb 8.470681755712405 -8.570853204800121
44
root 0.5683999821163087 17.803253134866047 10.865630705890826 -3.4528754278988467 -3.1074738059352294 -7.290908053783431
lfemur -19.50034998120237 2.3901341119561894 -9.869805868996497
ltibia 62.202847116752224
lfoot -11.87826030196242 -4.093811498641021
ltoes -0.7836635194608492
rfemur -9.399849980769286 4.968742613557541 32.79859404949972
rtibia 20.170905838459355
rfoot 0.020042066952959736 -8.597567544752167
rtoes 10.30837962771195
lowerback 11.932725933592398 1.4425245337624704 4.8759371693749625
upperback 0.2572250987124166 2.9596028408896236 2.627629182291194
thorax -6.217697846521897 1.362959056611151 -0.4685967442102805
lowerneck -16.6386708850649 -3.476090423474562 -1.513794895067117
upperneck 21.26411217960957 -4.815518436087815 2.028283781818799
head 9.53752132424964 -2.1853262156371116 0.3678183996242546
lclavicle -2.700307951800277e-15 -2.1517147062407894e-15
lhumerus -33.93336857465904 6.806225366703863 82.85077405774183
lradius 23.467723432328416
lwrist 10.501621951932417
lhand -29.37690037946368 16.924336021418455
lfingers 7.125020000000001
lthumb -2.7474536826268734 47.16902740793267
rclavicle -2.7003079517685006e-15 -2.151714706218605e-15
rhumerus -27.52728940090068 -16.689654139750235 -76.63827908035513
rradius 26.184259542587142
rwrist 6.705293592880512
rhand -17.862298040958745 21.57686934704468
rfingers 7.125020000000001
rthumb 8.43828186685014 -8.869277590418365
45
root 0.5742260174739928 17.77898599730022 11.22363209429571 -3.861938942505219 -2.8279974528446736 -6.830030477069933
lfemur -20.915937314374247 2.248637272054283 -11.0314904633748
ltibia 60.109719571931585
lfoot -12.746632430127786 -4.303588234199561
ltoes 0.18887685534009258
rfemur -7.849541640434155 4.795542923060957 32.29985650983823
rtibia 21.330245404674127
rfoot 0.14388835312114345 -8.715666365720859
rtoes 12.125167832464959
lowerback 11.85739287815149 1.6182820677999261 4.653547919478275
upperback 0.29408077789636455 3.110310584468937 2.503670913824255
thorax -6.1832210114206045 1.3986597440063357 -0.6874159238524804
lowerneck -16.723017742464727 -3.461204904369856 -1.501590233292483
upperneck 21.243013559654802 -4.795768864983401 2.055104008001762
head 9.601123655537693 -2.169903638905536 0.3670582483628917
lclavicle -2.7003079517928894e-15 -2.151714706236284e-15
lhumerus -33.29008866950939 6.01832126271584 82.6580962888582
lradius 23.741234429898054
lwrist 10.333995102368858
lhand -29.775896107593425 16.951869649971407
lfingers 7.125020000000001
lthumb -3.0998678238613233 47.041006860773834
rclavicle -2.7003079517758654e-15 -2.1517147062241058e-15
rhumerus -27.53511335026051 -16.619391209242263 -76.89209257595006
rradius 26.065291265440326
rwrist 6.174431614382732
rhand -17.83419595532518 21.499050123774
rfingers 7.125020000000001
rthumb 8.5077772175102 -8.865388199818804
46
root 0.5837466304891419 17.785142890996113 12.504263212130489 -3.616449082429315 -2.1095713611744906 -7.213110897409345
lfemur -21.963416483567222 1.6703175818358642 -11.806671592101436
ltibia 57.273151874587334
lfoot -13.627354061203613 -4.591348332561205
ltoes 0.8994190304097476
rfemur -6.138791054857325 4.545007945139948 32.44630821731599
rtibia 21.65591925278326
rfoot 0.339025493171345 -8.691946168610816
rtoes 11.473611272940863
lowerback 11.750553157698056 1.73817675482351 5.123183804566699
upperback 0.21466880778147712 3.318705661801324 2.4415660763326565
thorax -6.245547821740579 1.4421377205042207 -1.0907867115894336
lowerneck -16.711221097474418 -3.43753314125046 -1.4815612996087013
upperneck 21.258537056661297 -4.759224324426262 1.9472528666851727
head 9.645877932221246 -2.154693768634851 0.326496509000712
lclavicle -2.7003079517916864e-15 -2.151714706235991e-15
lhumerus -32.55426898541206 5.1059625543394525 82.41416074753367
lradius 24.084735261477803
lwrist 9.814349488978149
lhand -29.361653834187717 17.33648783890779
lfingers 7.125020000000001
lthumb -2.666410248329866 47.64587166367815
rclavicle -2.700307951765409e-15 -2.151714706217543e-15
rhumerus -27.666509763834128 -16.692751456382002 -77.10536837968878
rradius 26.021364773586928
rwrist 5.63033311060433
rhand -17.783777605426327 21.51331295647987
rfingers 7.125020000000001
rthumb 8.679810512229619 -8.736335936721574
47
root 0.5861988541256076 17.78791433610855 12.544149535467053 -3.625252754151261 -1.595243870305995 -7.191479488250948
lfemur -22.396538412749663 1.2842592350088826 -12.499722316387452
ltibia 54.16497675471685
lfoot -14.22308775853314 -4.8473355208106215
ltoes -4.989265240879699
rfemur -4.606866098849938 4.2178200608655825 32.29561577671987
rtibia 22.286051161091052
rfoot 0.4474503468905411 -8.692770137847802
rtoes 12.31548013232559
lowerback 11.747534630316755 1.843381621347707 5.1625252212442065
upperback 0.16814149522337402 3.477132373487114 2.3587809621692286
thorax -6.204872963889714 1.5222943754245206 -1.3024618470122453
lowerneck -16.709921564973143 -3.426909698827275 -1.4786220914054486
upperneck 21.32078277662308 -4.7075740500224805 1.8353689785138234
head 9.687184378833173 -2.140633099134635 0.2823532454938536
lclavicle -2.7003079517962732e-15 -2.1517147062396637e-15
lhumerus -31.539938218615696 4.39221877591133 82.19733331312321
lradius 24.407707430852398
lwrist 9.71924231931274
lhand -29.313406638922533 16.8685377137983
lfingers 7.125020000000001
lthumb -2.63137847115153 47.13536389697527
rclavicle -2.7003079517767635e-15 -2.1517147062258937e-15
rhumerus -27.70234148504479 -16.8370785559146 -77.44459014144743
rradius 25.97078201320685
rwrist 5.806440426067537
rhand -17.887678580309455 21.35485267997157
rfingers 7.125020000000001
rthumb 8.511367298781076 -8.999707150743946
